<?xml version="1.0" encoding="UTF-8" standalone="no"?>
<!-- Created with Inkscape (http://www.inkscape.org/) -->

<svg
   xmlns:dc="http://purl.org/dc/elements/1.1/"
   xmlns:cc="http://creativecommons.org/ns#"
   xmlns:rdf="http://www.w3.org/1999/02/22-rdf-syntax-ns#"
   xmlns:svg="http://www.w3.org/2000/svg"
   xmlns="http://www.w3.org/2000/svg"
   xmlns:xlink="http://www.w3.org/1999/xlink"
   xmlns:sodipodi="http://sodipodi.sourceforge.net/DTD/sodipodi-0.dtd"
   xmlns:inkscape="http://www.inkscape.org/namespaces/inkscape"
   width="800"
   height="600"
   id="svg2"
   version="1.1"
   inkscape:version="0.48.4 r9939"
   sodipodi:docname="qtcreatoricons.svg">
  <defs
     id="defs4">
    <linearGradient
       id="linearGradient3975">
      <stop
         id="stop3977"
         offset="0"
         style="stop-color:#4a73f6;stop-opacity:1;" />
      <stop
         id="stop3979"
         offset="1"
         style="stop-color:#0e44f3;stop-opacity:1;" />
    </linearGradient>
    <linearGradient
       id="linearGradient4061">
      <stop
         style="stop-color:#4a73f6;stop-opacity:1;"
         offset="0"
         id="stop4063" />
      <stop
         style="stop-color:#0e44f3;stop-opacity:1;"
         offset="1"
         id="stop4065" />
    </linearGradient>
    <linearGradient
       id="linearGradient3869">
      <stop
         style="stop-color:#ffb80c;stop-opacity:1;"
         offset="0"
         id="stop3871" />
      <stop
         style="stop-color:#ffdc5c;stop-opacity:1;"
         offset="1"
         id="stop3873" />
    </linearGradient>
    <linearGradient
       id="linearGradient4880">
      <stop
         style="stop-color:#000000;stop-opacity:0.19607843;"
         offset="0"
         id="stop4882" />
      <stop
         style="stop-color:#000000;stop-opacity:0;"
         offset="1"
         id="stop4884" />
    </linearGradient>
    <linearGradient
       id="linearGradient4482">
      <stop
         style="stop-color:#fa3e3e;stop-opacity:1;"
         offset="0"
         id="stop4484" />
      <stop
         style="stop-color:#ed0606;stop-opacity:1;"
         offset="1"
         id="stop4486" />
    </linearGradient>
    <linearGradient
       id="linearGradient4217">
      <stop
         style="stop-color:#ffd479;stop-opacity:1;"
         offset="0"
         id="stop4219" />
      <stop
         style="stop-color:#e9a618;stop-opacity:1;"
         offset="1"
         id="stop4221" />
    </linearGradient>
    <linearGradient
       inkscape:collect="always"
       xlink:href="#linearGradient4217"
       id="linearGradient4223"
       x1="163.5"
       y1="595.5"
       x2="160.5"
       y2="588"
       gradientUnits="userSpaceOnUse" />
    <filter
       id="soft_shadow"
       color-interpolation-filters="sRGB">
      <feFlood
         id="feFlood4468"
         flood-opacity="1"
         flood-color="rgb(0,0,0)"
         result="flood" />
      <feComposite
         id="feComposite4470"
         in2="SourceGraphic"
         in="flood"
         operator="in"
         result="composite1" />
      <feGaussianBlur
         id="feGaussianBlur4472"
         stdDeviation="1"
         result="blur" />
      <feOffset
         id="feOffset4474"
         dx="0"
         dy="1"
         result="offset" />
      <feComposite
         id="feComposite4476"
         in2="offset"
         in="SourceGraphic"
         operator="over"
         result="composite2" />
    </filter>
    <filter
       id="1_pixel_shadow"
       color-interpolation-filters="sRGB">
      <feFlood
         id="feFlood4726"
         flood-opacity="0.2"
         flood-color="rgb(0,0,0)"
         result="flood" />
      <feComposite
         id="feComposite4728"
         in2="SourceGraphic"
         in="flood"
         operator="in"
         result="composite1" />
      <feOffset
         id="feOffset4732"
         dx="0"
         dy="1"
         result="offset" />
      <feComposite
         id="feComposite4734"
         in2="offset"
         in="SourceGraphic"
         operator="over"
         result="composite2" />
    </filter>
    <clipPath
       clipPathUnits="userSpaceOnUse"
       id="clipPath4754">
      <rect
         style="fill:none;stroke:none"
         id="rect4756"
         width="9"
         height="9"
         x="187"
         y="592" />
    </clipPath>
    <clipPath
       clipPathUnits="userSpaceOnUse"
       id="clipPath4845">
      <rect
         style="opacity:0.60100002;fill:#ffffff;fill-opacity:0"
         id="rect4847"
         width="16"
         height="16"
         x="195"
         y="584" />
    </clipPath>
    <clipPath
       clipPathUnits="userSpaceOnUse"
       id="clipPath3927">
      <rect
         style="fill:none;stroke:none"
         id="rect3929"
         width="16"
         height="16"
         x="437"
         y="584" />
    </clipPath>
    <linearGradient
       inkscape:collect="always"
       xlink:href="#linearGradient3869"
       id="linearGradient3875"
       x1="461"
       y1="597"
       x2="461"
       y2="589"
       gradientUnits="userSpaceOnUse" />
    <linearGradient
       id="linearGradient3869-5">
      <stop
         style="stop-color:#ffb80c;stop-opacity:1;"
         offset="0"
         id="stop3871-5" />
      <stop
         style="stop-color:#ffdc5c;stop-opacity:1;"
         offset="1"
         id="stop3873-1" />
    </linearGradient>
    <clipPath
       clipPathUnits="userSpaceOnUse"
       id="clipPath3182">
      <rect
         style="fill:none;stroke:none"
         id="rect3184"
         width="16"
         height="16"
         x="56"
         y="568" />
    </clipPath>
    <clipPath
       clipPathUnits="userSpaceOnUse"
       id="clipPath3271">
      <rect
         style="fill:none;stroke:none"
         id="rect3273"
         width="16"
         height="16"
         x="72"
         y="568" />
    </clipPath>
    <clipPath
       clipPathUnits="userSpaceOnUse"
       id="clipPath3271-1">
      <rect
         style="fill:none;stroke:none"
         id="rect3273-7"
         width="16"
         height="16"
         x="72"
         y="568" />
    </clipPath>
    <clipPath
       clipPathUnits="userSpaceOnUse"
       id="clipPath3182-1">
      <rect
         style="fill:none;stroke:none"
         id="rect3184-7"
         width="16"
         height="16"
         x="56"
         y="568" />
    </clipPath>
    <clipPath
       clipPathUnits="userSpaceOnUse"
       id="clipPath4080">
      <rect
         y="568"
         x="120"
         height="16"
         width="16"
         id="rect4082"
         style="fill:none;stroke:none" />
    </clipPath>
    <clipPath
       clipPathUnits="userSpaceOnUse"
       id="clipPath4080-1">
      <rect
         y="568"
         x="120"
         height="16"
         width="16"
         id="rect4082-7"
         style="fill:none;stroke:none" />
    </clipPath>
    <radialGradient
       inkscape:collect="always"
       xlink:href="#linearGradient4482"
       id="radialGradient4553"
       gradientUnits="userSpaceOnUse"
       gradientTransform="matrix(1.5,0,0,1.5,-42,-296)"
       cx="84"
       cy="592"
       fx="84"
       fy="592"
       r="6" />
    <linearGradient
       inkscape:collect="always"
       xlink:href="#linearGradient4880"
       id="linearGradient4572"
       gradientUnits="userSpaceOnUse"
       x1="212"
       y1="590"
       x2="216"
       y2="590" />
    <radialGradient
       inkscape:collect="always"
       xlink:href="#linearGradient3975"
       id="radialGradient3994"
       cx="53.625004"
       cy="541.62494"
       fx="53.625004"
       fy="541.62494"
       r="6"
       gradientUnits="userSpaceOnUse"
       gradientTransform="matrix(1.3333331,-1.1619436e-5,1.161951e-5,1.3333416,-18.006285,-180.67045)" />
    <radialGradient
       inkscape:collect="always"
       xlink:href="#linearGradient4061"
       id="radialGradient4067"
       cx="138.81819"
       cy="530.55115"
       fx="138.81819"
       fy="530.55115"
       r="13"
       gradientUnits="userSpaceOnUse"
       gradientTransform="matrix(1.692308,7.822264e-8,-6.6221597e-8,1.4615398,-96.923093,-245.42163)" />
    <linearGradient
       inkscape:collect="always"
       xlink:href="#linearGradient3869-5"
       id="linearGradient3988"
       gradientUnits="userSpaceOnUse"
       gradientTransform="matrix(2,0,0,2,-404,-600)"
       x1="461"
       y1="597"
       x2="461"
       y2="589.25" />
    <radialGradient
       inkscape:collect="always"
       xlink:href="#linearGradient4482"
       id="radialGradient4002"
       gradientUnits="userSpaceOnUse"
       gradientTransform="matrix(3,0,0,3,298,-1192)"
       cx="84"
       cy="592"
       fx="84"
       fy="592"
       r="6" />
    <clipPath
       clipPathUnits="userSpaceOnUse"
       id="clipPath3204">
      <rect
         y="568"
         x="153"
         height="16"
         width="16"
         id="rect3206"
         style="fill:none;stroke:none" />
    </clipPath>
    <clipPath
       clipPathUnits="userSpaceOnUse"
       id="clipPath3218">
      <rect
         style="fill:none;stroke:none"
         id="rect3220"
         width="16"
         height="16"
         x="169"
         y="568" />
    </clipPath>
    <clipPath
       clipPathUnits="userSpaceOnUse"
       id="clipPath4031">
      <rect
         y="568"
         x="185"
         height="16"
         width="16"
         id="rect4033"
         style="fill:none;stroke:none" />
    </clipPath>
    <clipPath
       clipPathUnits="userSpaceOnUse"
       id="clipPath3233">
      <rect
         y="568"
         x="201"
         height="16"
         width="16"
         id="rect3235"
         style="fill:none;stroke:none" />
    </clipPath>
    <clipPath
       clipPathUnits="userSpaceOnUse"
       id="clipPath3237">
      <rect
         style="fill:none;stroke:none"
         id="rect3239"
         width="16"
         height="16"
         x="218"
         y="568" />
    </clipPath>
  </defs>
  <sodipodi:namedview
     id="base"
     pagecolor="#ffffff"
     bordercolor="#666666"
     borderopacity="1.0"
     inkscape:pageopacity="0.0"
     inkscape:pageshadow="2"
     inkscape:zoom="16"
     inkscape:cx="193.42734"
     inkscape:cy="26.302703"
     inkscape:document-units="px"
     inkscape:current-layer="src/plugins/coreplugin/images/unlocked"
     showgrid="true"
     showguides="true"
     inkscape:guide-bbox="true"
     inkscape:window-width="1440"
     inkscape:window-height="751"
     inkscape:window-x="-8"
     inkscape:window-y="-8"
     inkscape:window-maximized="1"
     inkscape:snap-grids="true">
    <inkscape:grid
       type="xygrid"
       id="grid2987"
       empspacing="2"
       visible="true"
       enabled="true"
       snapvisiblegridlinesonly="true"
       dotted="true"
       spacingx="0.5px"
       spacingy="0.5px" />
    <sodipodi:guide
       orientation="0,1"
       position="0,32"
       id="guide2989" />
    <sodipodi:guide
       orientation="0,1"
       position="0,0"
       id="guide2991" />
    <sodipodi:guide
       orientation="0,1"
       position="56,16"
       id="guide3045" />
    <sodipodi:guide
       orientation="0,1"
       position="0,48"
       id="guide4261" />
    <sodipodi:guide
       orientation="0,1"
       position="0,64"
       id="guide4543" />
    <sodipodi:guide
       orientation="0,1"
       position="0,80"
       id="guide4545" />
    <sodipodi:guide
       orientation="0,1"
       position="0,100"
       id="guide4574" />
  </sodipodi:namedview>
  <metadata
     id="metadata7">
    <rdf:RDF>
      <cc:Work
         rdf:about="">
        <dc:format>image/svg+xml</dc:format>
        <dc:type
           rdf:resource="http://purl.org/dc/dcmitype/StillImage" />
        <dc:title />
      </cc:Work>
    </rdf:RDF>
  </metadata>
  <g
     inkscape:label="Other icons"
     inkscape:groupmode="layer"
     id="layer1"
     style="display:inline">
    <g
       id="src/plugins/coreplugin/images/arrowdown">
      <rect
         y="583.99994"
         x="0"
         height="16"
         width="16"
         id="rect3817"
         style="fill:none" />
      <path
         style="fill:none;stroke:#bdbdbd;stroke-width:1.42;stroke-linecap:butt;stroke-linejoin:miter;stroke-miterlimit:4;stroke-opacity:1;stroke-dasharray:none"
         d="M 2.5,588.5 8,594 13.5,588.5"
         id="path3970"
         inkscape:connector-curvature="0"
         sodipodi:nodetypes="ccc" />
    </g>
    <use
       x="0"
       y="0"
       xlink:href="#src/plugins/coreplugin/images/arrowdown"
       id="src/plugins/coreplugin/images/arrowup"
       transform="matrix(1,0,0,-1,16,1183.9999)"
       width="800"
       height="600" />
    <g
       id="src/plugins/coreplugin/images/clear">
      <rect
         id="rect3855-7"
         width="12"
         height="12"
         x="48"
         y="588"
         style="fill:none" />
      <path
         style="fill:none;stroke:#4e4e4e;stroke-width:2.82999992;stroke-linecap:butt;stroke-linejoin:miter;stroke-miterlimit:4;stroke-opacity:1;stroke-dasharray:none"
         d="m 49,589 10,10"
         id="path3979"
         inkscape:connector-curvature="0" />
      <path
         style="fill:#4e4e4e;fill-opacity:1;stroke:#4e4e4e;stroke-width:2.82999992;stroke-linecap:butt;stroke-linejoin:miter;stroke-miterlimit:4;stroke-opacity:1;stroke-dasharray:none"
         d="M 59,589 49,599"
         id="path3981"
         inkscape:connector-curvature="0" />
    </g>
    <rect
       style="fill:#4e4e4e;fill-opacity:0.95074218;stroke:none"
       id="rect3956"
       width="16"
       height="16"
       x="60"
       y="584" />
    <g
       id="src/plugins/coreplugin/images/closebutton"
       style="opacity:0.8">
      <path
         inkscape:connector-curvature="0"
         id="path3998"
         d="m 63,588 9,9"
         style="fill:none;stroke:#ffffff;stroke-width:1.25;stroke-linecap:butt;stroke-linejoin:miter;stroke-miterlimit:4;stroke-opacity:1;stroke-dasharray:none" />
      <path
         inkscape:connector-curvature="0"
         id="path4000"
         d="m 63,597 9,-9"
         style="fill:none;stroke:#ffffff;stroke-width:1.25;stroke-linecap:butt;stroke-linejoin:miter;stroke-miterlimit:4;stroke-opacity:1;stroke-dasharray:none" />
      <rect
         y="584"
         x="60"
         height="16"
         width="16"
         id="rect4006"
         style="fill:none;stroke:none" />
    </g>
    <g
       id="src/plugins/coreplugin/images/darkclosebutton"
       style="opacity:0.60100002;fill:#ffffff;fill-opacity:0">
      <path
         inkscape:connector-curvature="0"
         id="path4171"
         d="m 143,588 9,9"
         style="fill:#ffffff;fill-opacity:0;stroke:#505050;stroke-width:1px;stroke-linecap:butt;stroke-linejoin:miter;stroke-opacity:1" />
      <path
         inkscape:connector-curvature="0"
         id="path4173"
         d="m 152,588 -9,9"
         style="fill:#000000;fill-opacity:0.8;stroke:#505050;stroke-width:1px;stroke-linecap:butt;stroke-linejoin:miter;stroke-opacity:1" />
      <rect
         y="584"
         x="140"
         height="16"
         width="16"
         id="rect3817-2-9-1-9"
         style="fill:#ffffff;fill-opacity:0" />
    </g>
    <g
       id="src/plugins/coreplugin/images/dir">
      <path
         sodipodi:nodetypes="ccccccccc"
         inkscape:connector-curvature="0"
         id="path4209"
         d="m 156.5,588.5 5,-3 0,2 5,-2.875 3,1.375 0,8.5 -7.98438,4.98706 c -2,0 -3.01562,0.013 -5.01562,-0.98706 z"
         style="fill:#ffffff;fill-opacity:1;stroke:#000000;stroke-width:1px;stroke-linecap:butt;stroke-linejoin:miter;stroke-opacity:1" />
      <path
         sodipodi:nodetypes="ccccccccc"
         inkscape:connector-curvature="0"
         id="path4215"
         d="m 157.5,589 3.03125,-1.875 -0.0312,1.875 6,-3.5 2,1 0,7.5 -7.5,4.5 c -1.31496,-0.0335 -2.50878,0.34865 -3.5,-0.5 z"
         style="fill:url(#linearGradient4223);fill-opacity:1;stroke:none" />
      <path
         sodipodi:nodetypes="ccc"
         inkscape:connector-curvature="0"
         id="path4225"
         d="m 158.5,599 0,-7 10,-6"
         style="fill:none;stroke:#808080;stroke-width:1px;stroke-linecap:butt;stroke-linejoin:miter;stroke-opacity:1" />
      <rect
         style="opacity:0.60100002;fill:#ffffff;fill-opacity:0"
         id="rect3817-2-9-1-9-8"
         width="16"
         height="16"
         x="155"
         y="584" />
    </g>
    <g
       style="display:inline"
       id="src/plugins/coreplugin/images/sidebaricon"
       clip-path="url(#clipPath3237)"
       transform="translate(-142,16)">
      <use
         height="600"
         width="800"
         transform="matrix(0,-1,1,0,-351,785)"
         id="use3223"
         xlink:href="#rect3233"
         y="0"
         x="0" />
      <rect
         style="fill:none;stroke:none"
         id="rect3216"
         width="16"
         height="16"
         x="218"
         y="568" />
      <path
         id="rect3241-1"
         style="fill:none;stroke:#292929;stroke-width:1;stroke-miterlimit:4;stroke-opacity:1;stroke-dasharray:none;display:inline"
         d="m 225.5,572.5 4,0 0,7 -4,0 z m -6,-2 12,0 0,11 -12,0 z"
         inkscape:connector-curvature="0"
         sodipodi:nodetypes="cccccccccc" />
    </g>
  </g>
  <g
     inkscape:groupmode="layer"
     id="layer2"
     inkscape:label="Editor tool bar icons"
     style="display:inline">
    <g
       style="display:inline"
       id="src/plugins/coreplugin/images/button_close"
       inkscape:export-filename="c:\Users\aportale\dev\qt-creator\src\plugins\coreplugin\images\button_close.png"
       inkscape:export-xdpi="90"
       inkscape:export-ydpi="90"
       transform="translate(-32,-16)">
      <rect
         style="fill:none"
         y="583.99994"
         x="32"
         height="16"
         width="16"
         id="rect3855" />
      <g
         id="g3920"
         style="filter:url(#1_pixel_shadow)">
        <path
           inkscape:connector-curvature="0"
           id="path3973"
           d="m 35,588 9,9"
           style="fill:none;stroke:#dbdbdb;stroke-width:1px;stroke-linecap:butt;stroke-linejoin:miter;stroke-opacity:1" />
        <path
           inkscape:connector-curvature="0"
           id="path3975"
           d="m 35,597 9,-9"
           style="fill:none;stroke:#dbdbdb;stroke-width:1px;stroke-linecap:butt;stroke-linejoin:miter;stroke-opacity:1" />
      </g>
    </g>
    <g
       id="src/plugins/coreplugin/images/extension"
       style="display:inline;filter:url(#1_pixel_shadow)"
       clip-path="url(#clipPath4754)"
       transform="translate(-171,-20)">
      <rect
         style="fill:none;stroke:none"
         id="use4527"
         width="9"
         height="9"
         x="187"
         y="592" />
      <path
         sodipodi:nodetypes="ccc"
         inkscape:connector-curvature="0"
         id="path4529"
         d="m 189,594 2.5,2.5 -2.5,2.5"
         style="fill:none;stroke:#dbdbdb;stroke-width:0.89999998;stroke-linecap:butt;stroke-linejoin:miter;stroke-miterlimit:4;stroke-opacity:1;stroke-dasharray:none" />
      <path
         sodipodi:nodetypes="ccc"
         inkscape:connector-curvature="0"
         id="path4529-0"
         d="m 192,594 2.5,2.5 -2.5,2.5"
         style="fill:none;stroke:#dbdbdb;stroke-width:0.89999998;stroke-linecap:butt;stroke-linejoin:miter;stroke-miterlimit:4;stroke-opacity:1;stroke-dasharray:none" />
    </g>
    <g
       id="src/plugins/coreplugin/images/filtericon"
       style="display:inline;filter:url(#1_pixel_shadow)"
       clip-path="url(#clipPath4845)"
       transform="translate(-170,-16)">
      <path
         sodipodi:nodetypes="ccccccccc"
         inkscape:connector-curvature="0"
         id="path4782"
         d="m 197.5,587.5 9,0 0,2 -3,3 0,4 -3,0 0,-4 -3,-3 z"
         style="fill:none;stroke:#dbdbdb;stroke-width:1px;stroke-linecap:butt;stroke-linejoin:miter;stroke-opacity:1" />
      <path
         sodipodi:nodetypes="cccc"
         inkscape:connector-curvature="0"
         id="path4784"
         d="m 210,595 -2.5,2.5 -2.5,-2.5 z"
         style="fill:#dbdbdb;fill-opacity:1;stroke:none" />
      <rect
         y="584"
         x="195"
         height="16"
         width="16"
         id="rect3817-2-9-1-9-6-2"
         style="opacity:0.60100002;fill:#ffffff;fill-opacity:0" />
    </g>
    <g
       id="src/plugins/coreplugin/images/linkicon"
       style="display:inline;filter:url(#1_pixel_shadow)"
       clip-path="url(#clipPath3927)"
       transform="translate(-396,-16)">
      <rect
         y="584"
         x="437"
         height="16"
         width="16"
         id="rect3123"
         style="fill:none;stroke:none" />
      <path
         style="fill:none;stroke:#dbdbdb;stroke-width:1.15;stroke-miterlimit:4;stroke-opacity:1;stroke-dasharray:none"
         d="m 448.5,590.5 c 0,1.5 -1.5,3 -5,3 -3.5,0 -5,-1.5 -5,-3 0,-1.5 1.5,-3 5,-3 3.5,0 5,1.5 5,3 z"
         id="path3917"
         inkscape:connector-curvature="0"
         sodipodi:nodetypes="zzzzz" />
      <use
         x="0"
         y="0"
         xlink:href="#path3917"
         id="use3148"
         transform="translate(3,3)"
         width="800"
         height="600" />
    </g>
    <g
       id="src/plugins/coreplugin/images/splitbutton_closebottom"
       style="filter:url(#1_pixel_shadow)"
       clip-path="url(#clipPath3182)"
       transform="translate(1,0)">
      <rect
         y="568"
         x="56"
         height="16"
         width="16"
         id="rect3170"
         style="fill:none;stroke:none" />
      <path
         id="rect3161"
         d="m 59,573 0,9 11,0 0,-9 -11,0 z m 1,2 9,0 0,6 -9,0 0,-6 z"
         style="fill:#dbdbdb;fill-opacity:1;stroke:none"
         inkscape:connector-curvature="0" />
      <path
         style="fill:#dbdbdb;fill-opacity:1;stroke:none;display:inline"
         d="M 67,577 64.5,579.5 62,577 z"
         id="path4784-1"
         inkscape:connector-curvature="0"
         sodipodi:nodetypes="cccc" />
    </g>
    <g
       id="src/plugins/coreplugin/images/splitbutton_closeleft"
       style="filter:url(#1_pixel_shadow)"
       clip-path="url(#clipPath3271)"
       transform="translate(17,0)">
      <rect
         y="568"
         x="72"
         height="16"
         width="16"
         id="rect3170-4"
         style="fill:none;stroke:none" />
      <path
         id="rect3161-5"
         d="m 83,571 -9,0 0,11 9,0 0,-11 z m -2,1 0,9 -6,0 0,-9 6,0 z"
         style="fill:#dbdbdb;fill-opacity:1;stroke:none"
         inkscape:connector-curvature="0" />
      <path
         style="fill:#dbdbdb;fill-opacity:1;stroke:none;display:inline"
         d="M 79,579 76.5,576.5 79,574 z"
         id="path4784-1-5"
         inkscape:connector-curvature="0"
         sodipodi:nodetypes="cccc" />
    </g>
    <g
       transform="translate(33,0)"
       id="src/plugins/coreplugin/images/splitbutton_closeright"
       style="display:inline;filter:url(#1_pixel_shadow)"
       clip-path="url(#clipPath3271-1)">
      <rect
         y="568"
         x="72"
         height="16"
         width="16"
         id="rect3170-4-1"
         style="fill:none;stroke:none" />
      <path
         id="rect3161-5-4"
         d="m 74,571 9,0 0,11 -9,0 0,-11 z m 2,1 0,9 6,0 0,-9 -6,0 z"
         style="fill:#dbdbdb;fill-opacity:1;stroke:none"
         inkscape:connector-curvature="0" />
      <path
         style="fill:#dbdbdb;fill-opacity:1;stroke:none;display:inline"
         d="M 78,579 80.5,576.5 78,574 z"
         id="path4784-1-5-2"
         inkscape:connector-curvature="0"
         sodipodi:nodetypes="cccc" />
    </g>
    <g
       transform="translate(16,0)"
       id="src/plugins/coreplugin/images/splitbutton_closetop"
       style="display:inline;filter:url(#1_pixel_shadow)"
       clip-path="url(#clipPath3182-1)">
      <rect
         y="568"
         x="56"
         height="16"
         width="16"
         id="rect3170-2"
         style="fill:none;stroke:none" />
      <path
         id="rect3161-4"
         d="m 59,582 0,-9 11,0 0,9 -11,0 z m 1,-2 9,0 0,-6 -9,0 0,6 z"
         style="fill:#dbdbdb;fill-opacity:1;stroke:none"
         inkscape:connector-curvature="0" />
      <path
         style="fill:#dbdbdb;fill-opacity:1;stroke:none;display:inline"
         d="M 67,578 64.5,575.5 62,578 z"
         id="path4784-1-55"
         inkscape:connector-curvature="0"
         sodipodi:nodetypes="cccc" />
    </g>
    <g
       id="src/plugins/coreplugin/images/splitbutton_horizontal"
       style="filter:url(#1_pixel_shadow)"
       clip-path="url(#clipPath4080)"
       transform="translate(1,0)">
      <rect
         y="568"
         x="120"
         height="16"
         width="16"
         id="rect4068"
         style="fill:none;stroke:none" />
      <rect
         y="571.5"
         x="122.5"
         height="10"
         width="7"
         id="rect3290"
         style="fill:none;stroke:#dbdbdb;stroke-opacity:1" />
      <path
         inkscape:connector-curvature="0"
         id="path4060"
         d="m 122.5,576.5 7,0"
         style="fill:none;stroke:#dbdbdb;stroke-width:1px;stroke-linecap:butt;stroke-linejoin:miter;stroke-opacity:1" />
      <path
         inkscape:connector-curvature="0"
         id="path4064"
         d="m 131,576.5 5,0"
         style="fill:#ffffff;fill-opacity:0;stroke:#dbdbdb;stroke-width:1px;stroke-linecap:butt;stroke-linejoin:miter;stroke-opacity:1" />
      <path
         inkscape:connector-curvature="0"
         id="path4066"
         d="m 133.5,574 0,5"
         style="fill:none;stroke:#dbdbdb;stroke-width:1px;stroke-linecap:butt;stroke-linejoin:miter;stroke-opacity:1" />
    </g>
    <g
       transform="translate(17,0)"
       id="src/plugins/coreplugin/images/splitbutton_vertical"
       style="display:inline;filter:url(#1_pixel_shadow)"
       clip-path="url(#clipPath4080-1)">
      <rect
         y="568"
         x="120"
         height="16"
         width="16"
         id="rect4068-1"
         style="fill:none;stroke:none" />
      <rect
         y="572.5"
         x="121.5"
         height="8.0002642"
         width="8.0000114"
         id="rect3290-4"
         style="fill:none;stroke:#dbdbdb;stroke-opacity:1" />
      <path
         inkscape:connector-curvature="0"
         id="path4060-2"
         d="m 125.5,573 0,7"
         style="fill:none;stroke:#dbdbdb;stroke-width:1px;stroke-linecap:butt;stroke-linejoin:miter;stroke-opacity:1"
         sodipodi:nodetypes="cc" />
      <path
         inkscape:connector-curvature="0"
         id="path4064-3"
         d="m 131,576.5 5,0"
         style="fill:#ffffff;fill-opacity:0;stroke:#dbdbdb;stroke-width:1px;stroke-linecap:butt;stroke-linejoin:miter;stroke-opacity:1" />
      <path
         inkscape:connector-curvature="0"
         id="path4066-2"
         d="m 133.5,574 0,5"
         style="fill:none;stroke:#dbdbdb;stroke-width:1px;stroke-linecap:butt;stroke-linejoin:miter;stroke-opacity:1" />
    </g>
    <g
       id="src/plugins/coreplugin/images/reload_reset_gray"
       style="filter:url(#1_pixel_shadow)"
       clip-path="url(#clipPath3204)">
      <g
         id="g3973">
        <path
           sodipodi:type="arc"
           style="fill:none;stroke:#dbdbdb;stroke-opacity:1;stroke-linecap:butt;stroke-width:1.15;stroke-miterlimit:4;stroke-dasharray:none"
           id="path3201"
           sodipodi:cx="161"
           sodipodi:cy="576"
           sodipodi:rx="4.5"
           sodipodi:ry="4.5"
           d="m 156.50027,575.95091 a 4.5,4.5 0 0 1 6.37514,-4.04149"
           sodipodi:start="3.152501"
           sodipodi:end="5.1422636"
           sodipodi:open="true" />
        <path
           style="fill:#dbdbdb;fill-opacity:1;stroke:none"
           d="m 161,574 6,0 -4,-4.5 z"
           id="path3971"
           inkscape:connector-curvature="0"
           sodipodi:nodetypes="cccc" />
      </g>
      <use
         height="600"
         width="800"
         transform="matrix(-1,0,0,-1,322,1152)"
         id="use3977"
         xlink:href="#g3973"
         y="0"
         x="0" />
      <rect
         style="fill:none;stroke:none"
         id="rect3992"
         width="16"
         height="16"
         x="153"
         y="568" />
    </g>
    <g
       style="display:inline"
       id="src/plugins/coreplugin/images/locked"
       transform="translate(-300,-16)">
      <rect
         y="584"
         x="597"
         height="16"
         width="16"
         id="rect3958"
         style="fill:none;stroke:none" />
      <path
         style="fill:#585858;fill-opacity:1;stroke:none"
         d="m 601,591 c -0.554,0 -1,0.446 -1,1 l 0,5 c 0,0.554 0.446,1 1,1 l 8,0 c 0.554,0 1,-0.446 1,-1 l 0,-5 c 0,-0.554 -0.446,-1 -1,-1 l -8,0 z m 4.15625,2 c 0.5,0 1.39285,1.12164 -0.125,1.5 0,0.74317 1,0.47785 1,1.46875 -1.02256,0.0161 -2.04255,-0.4686 -2.03125,-1.71875 0.008,-0.93759 0.65625,-1.25 1.15625,-1.25 z"
         id="lock_body"
         inkscape:connector-curvature="0" />
      <path
         style="fill:none;stroke:#585858;stroke-width:1px;stroke-linecap:butt;stroke-linejoin:miter;stroke-opacity:1"
         d="m 601.5,591.5 0,-1.5 c 0,-3 2,-3.5 3.5,-3.5 1.5,0 3.5,0.5 3.5,3.5 l 0,1.5"
         id="path3184"
         inkscape:connector-curvature="0"
         sodipodi:nodetypes="cszsc" />
    </g>
    <g
       style="display:inline"
       transform="translate(-284,-16)"
       id="src/plugins/coreplugin/images/unlocked">
      <rect
         y="584"
         x="597"
         height="16"
         width="16"
         id="rect3958-7"
         style="fill:none;stroke:none" />
      <path
         style="fill:none;stroke:#585858;stroke-width:1px;stroke-linecap:butt;stroke-linejoin:miter;stroke-opacity:1"
         d="m 612.5,590 0,-2.5 c 0,-2 -2,-2 -2.5,-2 -0.5,0 -2.5,-3e-5 -2.5,2.5 l 0,3"
         id="path3184-0"
         inkscape:connector-curvature="0"
         sodipodi:nodetypes="cszsc" />
      <use
         x="0"
         y="0"
         xlink:href="#lock_body"
         id="use3213"
         width="800"
         height="600" />
    </g>
    <g
       id="src/plugins/diffeditor/images/unifieddiff"
       clip-path="url(#clipPath3218)">
      <g
         style="stroke:#dbdbdb;stroke-opacity:1;filter:url(#1_pixel_shadow)"
         id="g3203">
        <path
           id="path3429"
           style="fill:none;stroke:#dbdbdb;stroke-width:1px;stroke-linecap:butt;stroke-linejoin:miter;stroke-opacity:1"
           d="m 178,578.5 4,0 m -7,3 5,-10 m -9,4 5,0 m -2.5,-2.5 0,5 m -4,-6.5 14,0 0,10 -14,0 z"
           inkscape:connector-curvature="0"
           sodipodi:nodetypes="ccccccccccccc" />
        <rect
           y="568"
           x="169"
           height="16"
           width="16"
           id="rect3203"
           style="fill:none;stroke:none" />
      </g>
    </g>
    <g
       id="src/plugins/diffeditor/images/sidebysidediff"
       clip-path="url(#clipPath4031)"
       style="filter:url(#1_pixel_shadow)">
      <path
         id="rect4001"
         style="fill:none;stroke:#dbdbdb;stroke-width:1;stroke-linecap:butt;stroke-linejoin:miter;stroke-miterlimit:4;stroke-opacity:1"
         d="m 185.5,571.5 14,0 0,10 -14,0 z m 9,5 2,0 c 0,0 1,0.5 1,1.5 0,1 -1,1.5 -1,1.5 l -2,0 0,-6 2,0 c 0,0 1,0.5 1,1.5 0,1 -1,1.5 -1,1.5 m -9,1 3,0 m -3,2.5 c 0,-1.83333 0,-4 0,-5.5 0,0 0,-1 1.5,-1 1.5,0 1.5,1 1.5,1 l 0,5.5 0,0 m 2,-8.5 0,10"
         inkscape:connector-curvature="0"
         sodipodi:nodetypes="cccccccsccccscccccsccccc" />
      <rect
         style="fill:none;stroke:none"
         id="rect4023"
         width="16"
         height="16"
         x="185"
         y="568" />
    </g>
    <g
       id="src/plugins/diffeditor/images/topbar"
       style="filter:url(#1_pixel_shadow)"
       clip-path="url(#clipPath3233)">
      <path
         sodipodi:nodetypes="cccccccccc"
         inkscape:connector-curvature="0"
         id="rect3233"
         d="m 204,571 0,11 10,0 0,-11 z m 1,5 8,0 0,5 -8,0 z"
         style="fill:#dbdbdb;fill-opacity:1;stroke:none" />
      <rect
         y="568"
         x="201"
         height="16"
         width="16"
         id="rect3219"
         style="fill:none;stroke:none" />
    </g>
  </g>
  <g
     inkscape:groupmode="layer"
     id="layer3"
     inkscape:label="Build steps widget icons">
    <g
       id="src/plugins/coreplugin/images/darkarrowdown"
       transform="translate(-92,-32)">
      <rect
         y="584"
         x="92"
         height="16"
         width="16"
         id="rect3817-2"
         style="fill:none" />
      <path
         style="fill:none;stroke:#434343;stroke-width:1.42;stroke-linecap:butt;stroke-linejoin:miter;stroke-miterlimit:4;stroke-opacity:1;stroke-dasharray:none"
         d="m 94.5,590.50006 5.5,5.5 5.5,-5.5"
         id="path3970-7"
         inkscape:connector-curvature="0"
         sodipodi:nodetypes="ccc" />
    </g>
    <g
       id="src/plugins/coreplugin/images/darkarrowup"
       transform="translate(-92,-32)">
      <rect
         y="584"
         x="108"
         height="16"
         width="16"
         id="rect3817-2-9"
         style="fill:none" />
      <path
         style="fill:none;stroke:#434343;stroke-width:1.42;stroke-linecap:butt;stroke-linejoin:miter;stroke-miterlimit:4;stroke-opacity:1;stroke-dasharray:none"
         d="m 110.5,596.5 5.5,-5.5 5.5,5.5"
         id="path3970-7-3"
         inkscape:connector-curvature="0"
         sodipodi:nodetypes="ccc" />
    </g>
    <g
       id="src/plugins/coreplugin/images/darkclose"
       transform="translate(-92,-32)">
      <path
         inkscape:connector-curvature="0"
         id="path4122"
         d="m 127,587 10,10"
         style="fill:none;stroke:#505050;stroke-width:1.42;stroke-linecap:butt;stroke-linejoin:miter;stroke-miterlimit:4;stroke-opacity:1;stroke-dasharray:none" />
      <path
         inkscape:connector-curvature="0"
         id="path4124"
         d="m 127,597 10,-10"
         style="fill:none;stroke:#505050;stroke-width:1.42;stroke-linecap:butt;stroke-linejoin:miter;stroke-miterlimit:4;stroke-opacity:1;stroke-dasharray:none" />
      <rect
         style="fill:none"
         id="rect3817-2-9-1"
         width="16"
         height="16"
         x="124"
         y="584" />
    </g>
    <g
       id="src/plugins/projectexplorer/images/disabledbuildstep">
      <rect
         style="fill:none"
         id="rect4230"
         width="16"
         height="16"
         x="48"
         y="552" />
      <path
         d="m 61.2929,560 a 5.2929,5.2929 0 1 1 -10.5858,0 5.2929,5.2929 0 1 1 10.5858,0 z"
         sodipodi:ry="5.2929"
         sodipodi:rx="5.2929"
         sodipodi:cy="560"
         sodipodi:cx="56"
         id="path4226"
         style="fill:#ffffff;fill-opacity:0;stroke:#505050;stroke-width:1.42;stroke-miterlimit:4;stroke-opacity:1;stroke-dasharray:none"
         sodipodi:type="arc" />
      <path
         inkscape:connector-curvature="0"
         id="path4228"
         d="m 52,564 c 8,-8 8,-8 8,-8"
         style="fill:none;stroke:#505050;stroke-width:1.42;stroke-linecap:butt;stroke-linejoin:miter;stroke-miterlimit:4;stroke-opacity:1;stroke-dasharray:none" />
    </g>
  </g>
  <g
     inkscape:groupmode="layer"
     id="layer4"
     inkscape:label="Errors, warnings, info"
     style="display:inline">
    <g
       id="src/plugins/coreplugin/images/compile_error_taskbar"
       transform="translate(-76,-48)">
      <path
         inkscape:connector-curvature="0"
         id="path4020"
         d="m 77,589 4,-4 6,0 4,4 0,6 -4,4 -6,0 -4,-4 z"
         style="fill:#8a0101;fill-opacity:1;stroke:none" />
      <path
         inkscape:connector-curvature="0"
         id="path4022"
         d="m 81.5,586.5 5,0 3,3 0,5 -3,3 -5,0 -3,-3 0,-5 3,-3"
         style="fill:url(#radialGradient4553);fill-opacity:1;stroke:#e36565;stroke-width:1px;stroke-linecap:butt;stroke-linejoin:miter;stroke-opacity:1" />
      <rect
         y="584"
         x="76"
         height="16"
         width="16"
         id="rect4024"
         style="fill:none;stroke:none" />
    </g>
    <g
       id="src/plugins/coreplugin/images/warning"
       transform="translate(-437,-48)">
      <rect
         style="fill:none;stroke:none"
         id="use3942"
         width="16"
         height="16"
         x="453"
         y="584" />
      <path
         sodipodi:nodetypes="cccc"
         inkscape:connector-curvature="0"
         id="path3945"
         d="m 454,598.5 7,-13 7,13 z"
         style="fill:#fcd171;fill-opacity:1;stroke:#493703;stroke-width:1px;stroke-linecap:butt;stroke-linejoin:miter;stroke-opacity:1" />
      <path
         style="fill:url(#linearGradient3875);fill-opacity:1;stroke:none"
         d="m 456.5,597 9,0 -4.5,-8.82322 z"
         id="path3974"
         inkscape:connector-curvature="0"
         sodipodi:nodetypes="cccc" />
      <path
         inkscape:connector-curvature="0"
         style="fill:#493703;fill-opacity:1;stroke:none"
         d="m 460,590 0.5,5 1,0 0.5,-5 z m 0,6 0,1 2,0 0,-1 z"
         id="path3959"
         sodipodi:nodetypes="cccccccccc" />
    </g>
    <g
       id="src/plugins/coreplugin/images/error"
       transform="translate(-438,-48)">
      <use
         height="600"
         width="800"
         transform="translate(470,48)"
         id="use3888"
         xlink:href="#src/plugins/coreplugin/images/compile_error_taskbar"
         y="0"
         x="0" />
      <path
         inkscape:connector-curvature="0"
         style="fill:#eea1a1;fill-opacity:1;stroke:none"
         d="m 477,588 0.5,5 1,0 0.5,-5 -2,0 z m 0,6 0,2 2,0 0,-2 -2,0 z"
         id="path3890" />
    </g>
    <g
       id="src/plugins/coreplugin/images/info"
       transform="translate(-438,-48)">
      <rect
         y="584"
         x="486"
         height="16"
         width="16"
         id="rect4024-7"
         style="fill:none;stroke:none" />
      <path
         sodipodi:type="arc"
         style="fill:#01218a;fill-opacity:1;stroke:none"
         id="path3203"
         sodipodi:cx="56"
         sodipodi:cy="544"
         sodipodi:rx="7"
         sodipodi:ry="7"
         d="m 63,544 c 0,3.86599 -3.134007,7 -7,7 -3.865993,0 -7,-3.13401 -7,-7 0,-3.86599 3.134007,-7 7,-7 3.865993,0 7,3.13401 7,7 z"
         transform="translate(438,48)" />
      <path
         sodipodi:type="arc"
         style="fill:url(#radialGradient3994);fill-opacity:1;stroke:#6583e3;stroke-opacity:1"
         id="path3986"
         sodipodi:cx="56"
         sodipodi:cy="544"
         sodipodi:rx="5.5"
         sodipodi:ry="5.5"
         d="m 61.5,544 c 0,3.03757 -2.462434,5.5 -5.5,5.5 -3.037566,0 -5.5,-2.46243 -5.5,-5.5 0,-3.03757 2.462434,-5.5 5.5,-5.5 3.037566,0 5.5,2.46243 5.5,5.5 z"
         transform="translate(438,48)" />
      <path
         inkscape:connector-curvature="0"
         style="fill:#a1acee;fill-opacity:1;stroke:none"
         d="m 493,588 0,2 2,0 0,-2 -2,0 z m 0,3 0,5 2,0 0,-5 -2,0 z"
         id="path3892-2" />
    </g>
    <g
       id="src/plugins/coreplugin/images/warning_big"
       transform="translate(-438,-48)">
      <rect
         style="fill:none;stroke:none"
         id="use3942-1"
         width="32"
         height="32"
         x="502"
         y="568" />
      <path
         sodipodi:nodetypes="cccc"
         inkscape:connector-curvature="0"
         id="path3945-1"
         d="M 503.5,597.5 518,570 l 14.5,27.5 z"
         style="fill:#fcd171;fill-opacity:1;stroke:#493703;stroke-width:1;stroke-linecap:butt;stroke-linejoin:miter;stroke-miterlimit:4;stroke-opacity:1;stroke-dasharray:none" />
      <path
         style="fill:url(#linearGradient3988);fill-opacity:1;stroke:none"
         d="m 506,596 24,0 -12,-23.32322 z"
         id="path3974-5"
         inkscape:connector-curvature="0"
         sodipodi:nodetypes="cccc" />
      <path
         inkscape:connector-curvature="0"
         style="fill:#493703;fill-opacity:1;stroke:none"
         d="m 516,579 1,10 2,0 1,-10 z m 0,12 0,3 4,0 0,-3 z"
         id="path3959-2"
         sodipodi:nodetypes="cccccccccc" />
    </g>
    <g
       id="src/plugins/coreplugin/images/error_big"
       transform="translate(-438,-48)">
      <path
         inkscape:connector-curvature="0"
         id="path4005"
         d="m 536,578 8,-8 12,0 8,8 0,12 -8,8 -12,0 -8,-8 z"
         style="fill:#8a0101;fill-opacity:1;stroke:none" />
      <path
         inkscape:connector-curvature="0"
         id="path4007"
         d="m 544.5,571.5 11,0 7,7 0,11 -7,7 -11,0 -7,-7 0,-11 7,-7"
         style="fill:url(#radialGradient4002);fill-opacity:1;stroke:#e36565;stroke-width:1;stroke-linecap:butt;stroke-linejoin:miter;stroke-miterlimit:4;stroke-opacity:1;stroke-dasharray:none"
         sodipodi:nodetypes="ccccccccc" />
      <path
         inkscape:connector-curvature="0"
         style="fill:#eea1a1;fill-opacity:1;stroke:none"
         d="m 548,576 1,11 2,0 1,-11 -4,0 z m 0,13 0,4 4,0 0,-4 -4,0 z"
         id="path3890-4" />
      <rect
         y="568"
         x="534"
         height="32"
         width="32"
         id="rect4049"
         style="fill:none;stroke:none" />
    </g>
    <g
       id="src/plugins/coreplugin/images/info_big">
      <path
         sodipodi:type="arc"
         style="fill:#01218a;fill-opacity:1;stroke:none"
         id="path4049"
         sodipodi:cx="144"
         sodipodi:cy="536"
         sodipodi:rx="14"
         sodipodi:ry="14"
         d="m 158,536 a 14,14 0 1 1 -28,0 14,14 0 1 1 28,0 z" />
      <path
         sodipodi:type="arc"
         style="fill:url(#radialGradient4067);fill-opacity:1;stroke:#6583e3;stroke-opacity:1"
         id="path4051"
         sodipodi:cx="144"
         sodipodi:cy="536"
         sodipodi:rx="12.5"
         sodipodi:ry="12.5"
         d="m 156.5,536 a 12.5,12.5 0 1 1 -25,0 12.5,12.5 0 1 1 25,0 z" />
      <path
         style="fill:#a1acee;fill-opacity:1;stroke:none"
         d="m 142,528 0,3 4,0 0,-3 z m -1,5 0,1 1,0 0,10 -1,0 0,1 6,0 0,-1 -1,0 0,-11 z"
         id="rect4080"
         inkscape:connector-curvature="0"
         sodipodi:nodetypes="cccccccccccccccc" />
      <rect
         style="fill:none;stroke:none"
         id="rect4087"
         width="32"
         height="32"
         x="128"
         y="520" />
    </g>
  </g>
  <g
     inkscape:groupmode="layer"
     id="layer5"
     inkscape:label="Panel items"
     style="display:inline">
    <g
       id="src/plugins/coreplugin/images/inputfield"
       transform="translate(-211,-80)">
      <rect
         ry="0"
         y="581"
         x="212"
         height="18"
         width="4"
         id="rect4870"
         style="fill:url(#linearGradient4572);fill-opacity:1;stroke:none" />
      <use
         height="600"
         width="800"
         transform="matrix(0,1,-6.1666667,0,3905.8334,369)"
         id="use4888"
         xlink:href="#rect4870"
         y="0"
         x="0" />
      <rect
         ry="2.5"
         y="580.5"
         x="211.5"
         height="19"
         width="112"
         id="rect4866"
         style="fill:none;stroke:#3a3a3a;stroke-width:1;stroke-miterlimit:4;stroke-opacity:1;stroke-dasharray:none" />
    </g>
    <g
       id="src/plugins/coreplugin/images/inputfield_disabled"
       transform="translate(-211,-80)">
      <rect
         ry="1.25"
         y="581"
         x="325"
         height="18"
         width="111"
         id="rect4931"
         style="opacity:0.4;fill:#999999;stroke:none" />
      <use
         height="600"
         width="800"
         transform="translate(324,80)"
         id="use4910"
         xlink:href="#src/plugins/coreplugin/images/inputfield"
         y="0"
         x="0" />
    </g>
    <g
       id="src/plugins/coreplugin/images/editclear"
       style="opacity:0.6"
       transform="translate(55,-82)">
      <path
         d="m 186,592 a 7,7 0 1 1 -14,0 7,7 0 1 1 14,0 z"
         sodipodi:ry="7"
         sodipodi:rx="7"
         sodipodi:cy="592"
         sodipodi:cx="179"
         id="path4284"
         style="fill:#505050;fill-opacity:1;stroke:none"
         sodipodi:type="arc" />
      <g
         id="g4438"
         style="filter:url(#soft_shadow)">
        <rect
           y="586.24261"
           x="173.47487"
           height="10.952218"
           width="10.898602"
           id="rect3817-2-9-1-9-6-5"
           style="opacity:0.60100002;fill:#ffffff;fill-opacity:0" />
        <path
           style="fill:none;stroke:#ffffff;stroke-width:1.7;stroke-linecap:butt;stroke-linejoin:miter;stroke-miterlimit:4;stroke-opacity:1;stroke-dasharray:none"
           d="m 176,589 6,6"
           id="path4478"
           inkscape:connector-curvature="0" />
        <path
           style="fill:none;stroke:#ffffff;stroke-width:1.7;stroke-linecap:butt;stroke-linejoin:miter;stroke-miterlimit:4;stroke-opacity:1;stroke-dasharray:none"
           d="m 176,595 6,-6"
           id="path4480"
           inkscape:connector-curvature="0" />
      </g>
      <rect
         style="opacity:0.60100002;fill:#ffffff;fill-opacity:0"
         id="rect3817-2-9-1-9-6"
         width="16"
         height="16"
         x="171"
         y="584" />
    </g>
  </g>
</svg>
