<?xml version="1.0" encoding="utf-8"?>
<!-- Generator: Adobe Illustrator 24.1.0, SVG Export Plug-In . SVG Version: 6.00 Build 0)  -->
<svg version="1.1" baseProfile="tiny" id="Layer_1" xmlns="http://www.w3.org/2000/svg" xmlns:xlink="http://www.w3.org/1999/xlink"
	 x="0px" y="0px" viewBox="0 0 450 272" xml:space="preserve">
<g>
	<path fill="#C9C7C7" d="M435.78,272H14.19C6.36,272,0,265.64,0,257.81V14.21C0,6.37,6.36,0.01,14.19,0.01h421.58
		c7.84,0,14.19,6.36,14.19,14.19v243.6C449.97,265.64,443.61,272,435.78,272z"/>
	<path fill="#878686" d="M0.44,19.66L0,14.19C0,6.36,6.35,0.01,14.18,0.01h421.61c7.83,0,14.18,6.35,14.18,14.18v6.84"/>
	<circle fill="#DD5958" cx="17.43" cy="10.66" r="5"/>
	<circle fill="#DBC558" cx="34.41" cy="10.66" r="5"/>
	<circle fill="#52B257" cx="51.4" cy="10.66" r="5"/>
</g>
<path fill="#FFFFFF" d="M310.9,130.29c-5.72-1.44-12.54-1.96-19.95-2.96c-1.52-5.95-3.87-11.55-6.92-16.72
	c4.57-6.01,9.08-11.24,12.13-16.37c0.86-1.44,1.03-3.56-0.1-4.69L282,75.49c-1.13-1.13-3.23-0.97-4.69-0.1
	c-5.11,3.05-10.33,7.56-16.35,12.11c-5.11-3.01-10.66-5.35-16.55-6.9c-1.03-7.53-1.54-14.47-3.01-20.28
	c-0.41-1.65-1.81-3.25-3.4-3.25h-19.89c-1.59,0-2.99,1.61-3.4,3.25c-1.46,5.76-1.96,12.66-2.99,20.13
	c-5.91,1.5-11.49,3.81-16.61,6.79c-6.05-4.59-11.3-9.14-16.45-12.21c-1.44-0.86-3.56-1.01-4.69,0.1L159.92,89.2
	c-1.13,1.13-0.97,3.25-0.1,4.69c3.03,5.11,7.51,10.29,12.04,16.26c-3.07,5.15-5.48,10.75-7.06,16.68
	c-7.43,1.01-14.31,1.52-20.05,2.99c-1.65,0.41-3.25,1.79-3.25,3.38v19.89c0,1.59,1.61,2.99,3.25,3.4
	c5.68,1.44,12.43,1.96,19.78,2.94c1.5,6.03,3.85,11.73,6.9,16.98c-4.51,5.91-8.93,11.08-11.96,16.12c-0.86,1.46-1.01,3.58,0.1,4.69
	l14.06,14.06c1.13,1.13,3.25,0.97,4.69,0.1c5-2.96,10.11-7.35,15.93-11.8c5.25,3.15,10.97,5.58,17.05,7.16
	c0.99,7.31,1.5,14.04,2.94,19.72c0.41,1.63,1.79,3.23,3.38,3.23c6.63,0,13.26,0,19.89,0c1.59,0,2.99-1.61,3.4-3.23
	c1.42-5.64,1.93-12.33,2.92-19.58c6.07-1.54,11.82-3.93,17.09-7.04c5.89,4.47,11.01,8.87,16.04,11.88c1.46,0.86,3.58,1.03,4.69-0.1
	l14.06-14.06c1.13-1.13,0.97-3.23,0.1-4.69c-2.99-5.02-7.39-10.15-11.86-16.02c3.09-5.23,5.48-10.91,7.02-16.92
	c7.39-1.01,14.21-1.52,19.93-2.96c1.63-0.41,3.23-1.81,3.23-3.4v-19.89C314.13,132.1,312.53,130.7,310.9,130.29z M227.41,175.67
	c-18.07,0-32.71-14.65-32.71-32.71s14.65-32.71,32.71-32.71s32.71,14.65,32.71,32.71S245.48,175.67,227.41,175.67z"/>
</svg>
