<?xml version="1.0" encoding="utf-8"?>
<!-- Generator: Adobe Illustrator 24.1.0, SVG Export Plug-In . SVG Version: 6.00 Build 0)  -->
<svg version="1.1" baseProfile="tiny" id="Layer_1" xmlns="http://www.w3.org/2000/svg" xmlns:xlink="http://www.w3.org/1999/xlink"
	 x="0px" y="0px" viewBox="0 0 450 272" xml:space="preserve">
<g>
	<path fill="#C9C7C7" d="M435.78,272H15.41c-7.84,0-14.19-6.36-14.19-14.19V14.94c0-7.84,6.36-14.19,14.19-14.19h420.37
		c7.84,0,14.19,6.36,14.19,14.19v242.86C449.97,265.64,443.61,272,435.78,272z"/>
	<path fill="#878686" d="M1.66,20.34l-0.44-5.45c0-7.81,6.33-14.14,14.14-14.14h420.47c7.81,0,14.14,6.33,14.14,14.14v6.82"/>
	<circle fill="#DD5958" cx="18.6" cy="11.37" r="4.98"/>
	<circle fill="#DBC558" cx="35.53" cy="11.37" r="4.98"/>
	<circle fill="#52B257" cx="52.47" cy="11.37" r="4.98"/>
</g>
<path fill="#EEEDEE" d="M409.72,257.05H52.05c-2.75,0-5-2.25-5-5V34.88c0-2.75,2.25-5,5-5h357.67c2.75,0,5,2.25,5,5v217.18
	C414.72,254.8,412.47,257.05,409.72,257.05z"/>
<g>
	<polygon fill="#949292" points="207.47,103.17 251.2,103.17 289.47,168.77 341.4,168.77 363.27,122.31 385.13,122.31 
		352.33,187.91 275.8,187.91 237.53,122.31 210.2,122.31 	"/>
	<polygon fill="#949292" points="305.87,81.31 327.73,81.31 327.73,125.04 344.13,125.04 316.8,152.37 289.47,125.04 305.87,125.04 
			"/>
	<circle fill="#949292" cx="289.47" cy="201.57" r="10.93"/>
	<circle fill="#949292" cx="338.67" cy="201.57" r="10.93"/>
</g>
<g>
	<g>
		<path fill="#C9C7C7" d="M169.36,247.01h-76.9c-7.84,0-14.19-6.36-14.19-14.19V57.03c0-7.84,6.36-14.19,14.19-14.19h76.9
			c7.84,0,14.19,6.36,14.19,14.19v175.79C183.55,240.65,177.2,247.01,169.36,247.01z"/>
		<path fill="#878686" d="M78.6,57.58l-0.33-4.1c0-5.88,4.77-10.65,10.65-10.65h83.99c5.88,0,10.65,4.77,10.65,10.65v5.14"/>
	</g>
	
		<rect x="54.69" y="103.54" transform="matrix(-1.836970e-16 1 -1 -1.836970e-16 278.2001 15.8358)" fill="#949292" width="152.99" height="86.95"/>
	<g>
		<path fill="none" stroke="#FFFFFF" stroke-width="3.8493" stroke-linecap="round" stroke-miterlimit="10" d="M109.66,143.31
			c0-12.76,10.34-23.1,23.1-23.1s23.1,10.34,23.1,23.1s-10.34,23.1-23.1,23.1"/>
		<circle fill="#FFFFFF" cx="132.27" cy="143.15" r="10.34"/>
		<text transform="matrix(1 0 0 1 94.7988 141.6104)" fill="#FFFFFF" font-family="'TitilliumWeb-Bold'" font-size="12.8129px">1</text>
		<text transform="matrix(1 0 0 1 156.1709 123.8447)" fill="#FFFFFF" font-family="'TitilliumWeb-Bold'" font-size="12.8129px">2</text>
		<text transform="matrix(1 0 0 1 133.2363 181.9883)" fill="#FFFFFF" font-family="'TitilliumWeb-Bold'" font-size="12.8129px">3</text>
	</g>
</g>
</svg>
