<?xml version="1.0" encoding="utf-8"?>
<!-- Generator: Adobe Illustrator 24.1.0, SVG Export Plug-In . SVG Version: 6.00 Build 0)  -->
<svg version="1.1" baseProfile="tiny" id="Layer_1" xmlns="http://www.w3.org/2000/svg" xmlns:xlink="http://www.w3.org/1999/xlink"
	 x="0px" y="0px" viewBox="0 0 450 272" xml:space="preserve">
<g>
	<path fill="#C9C7C7" d="M435.78,272H15.41c-7.84,0-14.19-6.36-14.19-14.19V14.94c0-7.84,6.36-14.19,14.19-14.19h420.37
		c7.84,0,14.19,6.36,14.19,14.19v242.86C449.97,265.64,443.61,272,435.78,272z"/>
	<path fill="#878686" d="M1.66,20.34l-0.44-5.45c0-7.81,6.33-14.14,14.14-14.14h420.47c7.81,0,14.14,6.33,14.14,14.14v6.82"/>
	<circle fill="#DD5958" cx="18.6" cy="11.37" r="4.98"/>
	<circle fill="#DBC558" cx="35.53" cy="11.37" r="4.98"/>
	<circle fill="#52B257" cx="52.47" cy="11.37" r="4.98"/>
</g>
<g>
	<g>
		<path fill="#FFFFFF" d="M303.47,70.58c-2.26,40.17-11.3,68.54-51.47,101.18c0,17.07-6.78,34.15-20.59,46.2l-22.85-25.61
			c-4.77,4.52-11.05,6.78-17.07,7.03c-8.03,0.25-15.82-2.76-21.59-9.04c-10.04-11.3-9.04-28.62,2.01-38.66l-22.85-25.61
			c13.81-12.3,31.38-17.32,48.46-15.32C234.17,74.35,263.3,68.32,303.47,70.58z M261.79,132.34c7.53-6.78,8.03-18.08,1.51-25.61
			c-3.77-4.02-8.79-6.28-14.31-6.03c-4.27,0.25-8.29,1.76-11.3,4.52c-7.53,6.78-8.03,18.08-1.51,25.61
			c3.77,4.02,8.79,6.28,14.31,6.03C254.51,136.61,258.53,135.11,261.79,132.34z"/>
	</g>
</g>
</svg>
