/* XPM */
static const char * pin_xpm[] = {
"12 9 7 1",
"       c None",
".      c #000000",
"+      c #515151",
"@      c #A8A8A8",
"#      c #A9A9A9",
"$      c #999999",
"%      c #696969",
"     .      ",
"     ......+",
"     .@@@@@.",
"     .#####.",
"+.....$$$$$.",
"     .%%%%%.",
"     .......",
"     ......+",
"     .      "};
