<?xml version="1.0" encoding="utf-8"?>
<svg version="1.1" baseProfile="tiny" id="Layer_1" xmlns="http://www.w3.org/2000/svg" xmlns:xlink="http://www.w3.org/1999/xlink"
	 x="0px" y="0px" viewBox="0 0 128 128" overflow="visible" xml:space="preserve">
<g transform="translate(0.000000,2000.000000) scale(0.100000,-0.100000)">
	<path fill="#686868" d="M764,19815.1c-12.5-0.6-28.9-2.1-38.4-3.5c-30-4.3-73-22.5-107.4-45.4c-19.9-13.2-34.6-25.2-51.1-41.6
		c-18.6-18.6-30.1-33.4-43.2-55.8l-5.8-9.9l-6.7,3.2c-44.8,21.1-105.6,27.1-154.5,15.3c-35.4-8.5-75.1-30-104.5-56.5
		c-3.4-3.1-6.8-6-7.5-6.5c-2.2-1.6-17.1-17.9-22.3-24.5c-7.4-9.3-16.5-23.4-21.7-33.8c-13.5-26.7-25.2-66.5-26.7-91l-0.4-7
		l-15.9-7.9c-26.7-13.3-44.8-26.6-66.8-49.2c-18.9-19.3-31.4-36.4-41.9-57c-22.4-44.3-29.9-95.3-20.8-142.8
		c8.4-44.1,29.1-83.5,61.5-117.1c35.2-36.5,62.1-52.4,108.2-64c24-6,47.3-7.8,115.4-8.9c12.4-0.2,29.7-0.4,38.4-0.6
		c78.9-1.6,573.8-2.5,615.8-1.1c54,1.7,79,3.6,101.9,7.4c21.4,3.6,36.6,8.4,59.7,18.8c31.7,14.3,49.3,26.2,71,48
		c22.6,22.7,38,46.4,49.6,76.8c14.6,38.2,19.8,83.7,13.7,121.3c-5.2,31.9-19.8,67.7-38.7,94.4c-10.5,14.7-28.8,34.7-42.7,46.2
		c-28.8,24.1-58.1,39.7-90.8,48.4c-7.5,2-9.1,2.7-9.1,3.6c0,0.6,0.8,6.8,1.7,13.7c1.6,11.5,1.7,14.2,1.7,32.8
		c0,21.9-0.9,31.7-4.4,49.8c-9.2,46.3-30,91.8-59.8,130.6c-21.3,27.8-49.5,53.4-77,69.9c-31.4,18.8-83.2,39.1-108.8,42.6
		C819.9,19815.7,790.2,19816.3,764,19815.1z M828,19778.4c13-1.8,27.2-6.1,48.6-14.6c24-9.6,42.8-19,56.8-28.3
		c57.9-38.7,101.4-106.8,113.6-178c3.9-22.6,4.1-43.6,0.6-69.7c-1.1-8.4-2.2-19-2.3-23.5c-0.3-7.6-0.3-8.5,1.1-11.6
		c0.9-2.1,2.6-4.4,4.6-6.1c3.6-3.2,4.9-3.7,23.6-8.6c19.7-5.2,28.8-8.4,42.2-15.2c32.3-16.2,62.4-42.8,82-72.5
		c14.5-22,26.1-52.4,29.9-78.6c0.8-5.6,1.1-11.6,1.1-22.8c-0.1-55-19.5-104.3-55.1-140.1c-18.5-18.6-39.9-32.1-71-44.9
		c-32.4-13.4-63.1-16.9-162.9-18.8c-36.3-0.7-402.6-0.4-440.8,0.4c-8.2,0.2-43.7,0.4-78.9,0.6c-93.9,0.5-151.4,1.6-178.1,3.5
		c-14.9,1.1-24.2,2.5-36.8,5.7c-39,9.9-59.1,21.9-89.9,53.6c-26,26.7-44.1,60-51.4,94.6c-8.9,42.1-3.2,84.4,16.8,124.7
		c11.5,23.2,33.3,48.7,58.8,69c10.2,8.2,20.3,14.4,34.3,21.2c21.2,10.4,27.7,15.3,32,24.5c2.4,5,3.5,10.5,3.5,17.2
		c0,12.4,5.9,37,14,59.1c4.4,11.9,12.1,27.5,18.3,36.7c18.9,28.3,49.9,55,83.7,71.9c29.5,14.8,54.5,20.2,89.4,19.4
		c15-0.3,24.8-1.4,38-4c18.7-3.7,30.7-8,51.1-18.1c17-8.6,19.2-9.1,25.8-7.2c6.1,1.8,8.7,4.9,18.6,22.2c10.8,19,14.4,24.8,20.7,33.2
		c28.7,38.1,74.9,72.8,121.8,91.3c23.8,9.4,36.1,12.1,62.8,13.9c5.6,0.4,11.6,0.8,13.3,0.9C774.9,19779.8,823.3,19779.1,828,19778.4
		z"/>
</g>
<path  fill="#686868" d="M82.4,65.7L70.2,78.7c0,0-0.1,0-0.1,0l0-33.5c0-1.6-1.2-3.1-2.9-3.2c-1.7-0.1-3.1,1.3-3.1,3v33.7c0,0,0,0-0.1,0L52,65.7
	c-0.9-1-2.5-1.1-3.6-0.1h0c-1,0.9-1.1,2.5-0.1,3.6l16.7,18c1.2,1.3,3.2,1.3,4.3,0l16.7-18c0.9-1,0.9-2.6-0.1-3.6h0
	C84.9,64.6,83.3,64.6,82.4,65.7z"/>
</svg>
